<svg width="1200" height="1200" xmlns="http://www.w3.org/2000/svg" xmlns:xlink="http://www.w3.org/1999/xlink" version="1.1"><g transform="scale(12.17875487725727) translate(-0.7333897484673395, -0.7338608635796451)">                        <g fill="#3b82f6"><g xmlns="http://www.w3.org/2000/svg"><path d="M80.633,63.705c0-2.095-0.377-4.133-1.121-6.068h0c0,0,0,0,0,0c-0.067-0.175-0.138-0.349-0.211-0.522   c-0.046-0.108-0.092-0.215-0.14-0.322c-0.844-1.887-2.016-3.587-3.486-5.058c-0.408-0.408-0.834-0.794-1.277-1.155   c-0.246-0.201-0.496-0.394-0.752-0.58c0,0,0,0,0,0c-1.038-0.755-2.158-1.388-3.351-1.892c-0.062-0.026-0.124-0.052-0.187-0.078   c0,0,0,0,0,0c0,0,0,0,0,0c0.012,0.654,0.017,1.311,0.017,1.969c0,0.659-0.006,1.315-0.017,1.969   c-0.006,0.331-0.013,0.662-0.022,0.991c-0.021,0.793-0.051,1.582-0.089,2.367c1.273,0.959,2.322,2.2,3.051,3.631   c0.14,0.273,0.267,0.554,0.383,0.84c0.487,1.208,0.755,2.526,0.755,3.906c0,0.036-0.001,0.072-0.001,0.107   c0,0.023,0,0.046-0.001,0.069c-0.001,0.034-0.002,0.067-0.002,0.101c-0.001,0.027-0.001,0.055-0.002,0.082   c-0.001,0.032-0.003,0.064-0.004,0.097c-0.001,0.029-0.002,0.057-0.004,0.086c-0.002,0.031-0.003,0.062-0.005,0.093   c-0.002,0.03-0.004,0.06-0.006,0.089c-0.002,0.03-0.004,0.06-0.007,0.09c-0.002,0.031-0.005,0.062-0.008,0.093   c-0.002,0.029-0.005,0.057-0.008,0.086c-0.003,0.033-0.006,0.065-0.01,0.097c-0.003,0.027-0.006,0.054-0.009,0.081   c-0.004,0.036-0.008,0.072-0.013,0.108c-0.003,0.023-0.006,0.047-0.008,0.07c-0.007,0.052-0.014,0.103-0.021,0.155   c-0.015,0.102-0.031,0.203-0.049,0.305c-0.012,0.07-0.025,0.14-0.039,0.21c-0.008,0.041-0.016,0.081-0.025,0.121   c-0.017,0.081-0.035,0.162-0.054,0.243c-0.01,0.041-0.019,0.082-0.029,0.122c-0.001,0.004-0.002,0.008-0.003,0.012   c-0.012,0.049-0.025,0.099-0.038,0.148c-0.092,0.35-0.201,0.694-0.328,1.029c-1.062,2.815-3.304,5.057-6.119,6.119   c-0.64,2.512-1.387,4.876-2.235,7.056c1.771-0.15,3.492-0.576,5.134-1.27c2.016-0.853,3.826-2.073,5.38-3.626   c1.554-1.554,2.774-3.364,3.626-5.38c0.695-1.642,1.12-3.363,1.27-5.134c0.028-0.333,0.047-0.668,0.056-1.004h0   c0.001-0.053,0.002-0.106,0.003-0.159c0.001-0.044,0.001-0.089,0.002-0.134C80.633,63.812,80.633,63.758,80.633,63.705z"/><path d="M39.029,31.344L39.029,31.344c-2.314,0.24-4.567,0.555-6.742,0.943c-0.321,0.057-0.64,0.116-0.958,0.177   c-1.419,0.27-2.803,0.572-4.145,0.904c-0.297,0.923-0.458,1.906-0.458,2.926c0,0.81,0.101,1.596,0.291,2.347   c0.01,0.038,0.019,0.075,0.029,0.112c0.02,0.075,0.041,0.149,0.062,0.223c0.033,0.111,0.067,0.221,0.103,0.331   c0.036,0.109,0.075,0.218,0.115,0.325c0.04,0.108,0.083,0.214,0.126,0.32c0.958-0.259,1.942-0.5,2.951-0.724   c0.311-0.069,0.623-0.136,0.939-0.201h0c0.128-0.027,0.257-0.053,0.386-0.079c0.074-0.015,0.149-0.03,0.223-0.044   c0.081-0.016,0.162-0.032,0.243-0.048c0.04-0.008,0.08-0.015,0.119-0.023c0.109-0.021,0.218-0.042,0.328-0.063   c0.008-0.002,0.016-0.003,0.024-0.005c0.016-0.003,0.033-0.006,0.049-0.009c0.124-0.023,0.248-0.046,0.373-0.069   c0.045-0.008,0.089-0.016,0.134-0.024c0.07-0.013,0.14-0.025,0.21-0.038c0.17-0.03,0.34-0.06,0.51-0.089   c0.038-0.007,0.076-0.013,0.114-0.02c0.114-0.019,0.229-0.039,0.344-0.058c0.038-0.006,0.076-0.013,0.114-0.019   c0.092-0.015,0.184-0.03,0.276-0.045c0.049-0.008,0.097-0.016,0.146-0.023c0.07-0.011,0.14-0.022,0.21-0.033   c0.226-0.035,0.453-0.07,0.68-0.104c0.058-0.009,0.116-0.017,0.173-0.025c0.026-0.004,0.052-0.008,0.079-0.011   c0.003-0.001,0.006-0.001,0.009-0.001c0.061-0.009,0.121-0.018,0.182-0.026c0.006-0.001,0.011-0.002,0.017-0.002   c0.034-0.005,0.069-0.01,0.103-0.015c0.092-0.013,0.184-0.026,0.277-0.039c0.001,0,0.002,0,0.004-0.001   c0.027-0.004,0.053-0.007,0.08-0.011c0.173-0.024,0.346-0.047,0.52-0.069c0.032-0.004,0.064-0.009,0.095-0.012   c0.007-0.001,0.013-0.002,0.02-0.003c0.187-0.024,0.373-0.048,0.561-0.071h0c0.31-0.038,0.621-0.075,0.934-0.11   c2.246-0.252,4.561-0.427,6.925-0.522c0.028-0.001,0.055-0.002,0.083-0.003c0.279-0.011,0.558-0.021,0.838-0.03l0,0l0,0   c0.025-0.001,0.049-0.002,0.074-0.002c0,0.006,0.001,0.011,0.001,0.017c0,0,0,0,0,0c0-0.006-0.001-0.011-0.001-0.017   c1.057-0.033,2.122-0.049,3.195-0.049c1.073,0,2.138,0.016,3.195,0.049h0l0,0c0.025,0.001,0.049,0.001,0.074,0.002h0   c0.28,0.009,0.56,0.018,0.839,0.03c0.028,0.001,0.055,0.002,0.083,0.003c2.364,0.095,4.679,0.27,6.925,0.522h0v0   c-0.286-2.284-0.653-4.489-1.098-6.59h0c-1.394-0.131-2.808-0.235-4.238-0.31c-0.35-0.019-0.7-0.035-1.052-0.05h0   c-0.479-0.021-0.959-0.038-1.441-0.053c-0.323-0.01-0.647-0.018-0.971-0.025c-0.768-0.016-1.54-0.024-2.315-0.024   c-0.775,0-1.547,0.008-2.315,0.024c-0.325,0.006-0.648,0.015-0.971,0.025c-0.482,0.014-0.963,0.032-1.442,0.053h0   c-0.352,0.015-0.702,0.032-1.051,0.05c-1.431,0.075-2.845,0.179-4.239,0.31C39.663,31.28,39.345,31.311,39.029,31.344z"/><path d="M60.971,68.656L60.971,68.656c0.145-0.015,0.289-0.03,0.434-0.046c0.093-0.01,0.185-0.02,0.277-0.031   c0.005,0,0.009-0.001,0.014-0.002c0.046-0.005,0.093-0.01,0.14-0.015c0,0,0.001,0,0.001,0c0.009-0.001,0.019-0.002,0.028-0.003   c0.002,0,0.004,0,0.006-0.001c0.005-0.001,0.01-0.001,0.015-0.002c0.057-0.006,0.114-0.013,0.17-0.02   c0.013-0.001,0.026-0.003,0.039-0.004c0.057-0.006,0.114-0.013,0.171-0.02c0.126-0.015,0.252-0.03,0.378-0.045   c0.037-0.004,0.074-0.009,0.111-0.014c0.007-0.001,0.014-0.002,0.02-0.003c0.099-0.012,0.198-0.024,0.296-0.036   c0.102-0.013,0.203-0.026,0.304-0.039c0.007-0.001,0.014-0.002,0.022-0.003c0.071-0.009,0.142-0.018,0.213-0.028   c0.031-0.004,0.061-0.008,0.091-0.012c0.067-0.008,0.133-0.017,0.2-0.026c0.029-0.004,0.059-0.008,0.088-0.012   c0.025-0.003,0.051-0.007,0.076-0.01c0.175-0.024,0.349-0.048,0.523-0.073c0.034-0.005,0.068-0.01,0.102-0.015   c0.051-0.007,0.101-0.014,0.152-0.022c0.036-0.005,0.073-0.01,0.109-0.016c0.071-0.01,0.141-0.02,0.212-0.031   c0.032-0.005,0.063-0.01,0.095-0.014c0.004-0.001,0.007-0.001,0.011-0.002c0.103-0.015,0.207-0.031,0.31-0.047   c0.097-0.015,0.193-0.03,0.29-0.045c0.008-0.001,0.016-0.003,0.024-0.004c0.088-0.014,0.177-0.028,0.265-0.042   c0.061-0.01,0.121-0.02,0.182-0.03c0.109-0.018,0.217-0.035,0.325-0.053c0.045-0.007,0.09-0.015,0.135-0.022   c0.082-0.014,0.163-0.027,0.245-0.041c0.02-0.003,0.04-0.007,0.059-0.01c0.032-0.006,0.064-0.011,0.097-0.017   c0.026-0.005,0.053-0.009,0.079-0.014c0.01-0.002,0.021-0.004,0.031-0.005c0.033-0.006,0.065-0.011,0.098-0.017   c0.101-0.017,0.202-0.035,0.303-0.053h0c0.321-0.057,0.64-0.116,0.958-0.177c1.42-0.27,2.803-0.572,4.145-0.905h0   c0.297-0.922,0.457-1.906,0.457-2.926c0-1.295-0.259-2.531-0.727-3.659h0c-0.958,0.259-1.942,0.5-2.951,0.724   c-0.311,0.069-0.624,0.136-0.939,0.201h0c-0.168,0.035-0.338,0.069-0.508,0.103c-0.052,0.01-0.103,0.021-0.155,0.031   c-0.344,0.068-0.691,0.134-1.041,0.199c-0.015,0.003-0.031,0.006-0.046,0.009c-0.013,0.002-0.027,0.005-0.04,0.007   c-0.184,0.033-0.368,0.066-0.552,0.099c-0.041,0.007-0.081,0.014-0.122,0.021c-0.018,0.003-0.037,0.006-0.055,0.009   c-0.145,0.025-0.29,0.05-0.436,0.074c-0.02,0.003-0.039,0.007-0.059,0.01c-0.053,0.009-0.107,0.017-0.161,0.026   c-0.106,0.017-0.212,0.035-0.319,0.052c-0.001,0-0.002,0.001-0.003,0.001c-0.021,0.003-0.042,0.007-0.063,0.01   c-0.135,0.022-0.271,0.043-0.407,0.064c-0.014,0.002-0.027,0.004-0.041,0.006c-0.013,0.002-0.025,0.004-0.038,0.006   c-0.147,0.023-0.295,0.045-0.443,0.067c-0.011,0.002-0.021,0.003-0.032,0.005c-0.02,0.003-0.04,0.006-0.061,0.009   c-0.129,0.019-0.258,0.037-0.387,0.056c-0.023,0.003-0.046,0.007-0.069,0.01c-0.085,0.012-0.169,0.024-0.254,0.035   c-0.027,0.004-0.053,0.007-0.08,0.011c-0.065,0.009-0.13,0.018-0.195,0.026c-0.036,0.005-0.072,0.01-0.108,0.015   c-0.006,0.001-0.012,0.002-0.018,0.002c-0.068,0.009-0.136,0.018-0.203,0.027c-0.062,0.008-0.123,0.016-0.185,0.024   c0,0,0,0-0.001,0c-0.024,0.003-0.047,0.006-0.071,0.009c-0.151,0.019-0.302,0.038-0.454,0.057c-0.31,0.038-0.62,0.075-0.933,0.11   c-2.246,0.252-4.562,0.427-6.925,0.522c-0.028,0.001-0.055,0.002-0.083,0.003c-0.279,0.011-0.559,0.021-0.839,0.03h0   c-0.006,0-0.012,0-0.018,0.001c-0.019,0.001-0.038,0.001-0.056,0.002c-1.057,0.033-2.122,0.049-3.195,0.049   c-0.446,0-0.89-0.003-1.334-0.009c-0.09-0.001-0.18-0.002-0.27-0.003c-0.017,0-0.034-0.001-0.05-0.001   c-0.516-0.008-1.03-0.02-1.541-0.036l0,0c-0.025-0.001-0.05-0.001-0.074-0.002h0c-0.28-0.009-0.559-0.018-0.838-0.03   c-0.028-0.001-0.055-0.002-0.083-0.003c-2.364-0.095-4.679-0.27-6.925-0.522c0.089,0.714,0.186,1.42,0.291,2.117   c0.231,1.534,0.501,3.028,0.806,4.473v0c1.394,0.131,2.808,0.235,4.239,0.31c0.349,0.019,0.7,0.035,1.051,0.05h0   c0.479,0.021,0.96,0.038,1.442,0.053c0.167,0.005,0.335,0.01,0.503,0.014c0.156,0.004,0.312,0.007,0.468,0.011   c0.488,0.01,0.979,0.017,1.47,0.021c0.281,0.002,0.563,0.004,0.845,0.004c0,0,0,0,0,0c0,0,0,0,0,0c0.775,0,1.547-0.008,2.315-0.024   c0.324-0.006,0.648-0.015,0.971-0.025c0.482-0.014,0.962-0.032,1.441-0.053h0c0.352-0.015,0.703-0.032,1.052-0.05   c1.43-0.076,2.844-0.18,4.238-0.31C60.337,68.72,60.654,68.689,60.971,68.656z"/><path d="M93.132,45.277c-0.713-1.354-1.744-2.658-3.067-3.873c-2.114-1.944-4.975-3.684-8.519-5.184   c-0.301-0.128-0.608-0.254-0.919-0.378h0c-0.128-0.051-0.257-0.102-0.386-0.152c-1.986-0.772-4.128-1.46-6.397-2.058h0   c-0.34-0.09-0.682-0.178-1.028-0.263c-1.342-0.332-2.726-0.634-4.145-0.904c0.286,1.639,0.532,3.321,0.735,5.038   c0.068,0.572,0.131,1.148,0.19,1.728v0c1.009,0.223,1.994,0.465,2.951,0.724c0.298,0.081,0.593,0.163,0.886,0.247h0c0,0,0,0,0,0h0   c1.573,0.451,3.068,0.951,4.473,1.497c0.554,0.216,1.09,0.438,1.607,0.665h0h0c0.284,0.125,0.561,0.251,0.833,0.38   c2.23,1.051,4.056,2.21,5.357,3.406c1.453,1.336,2.189,2.631,2.189,3.851c0,1.22-0.737,2.515-2.189,3.851   c-1.302,1.196-3.127,2.355-5.358,3.406c0.798,2.055,1.202,4.222,1.202,6.448c0,0.025,0,0.05,0,0.075   c3.544-1.499,6.405-3.24,8.519-5.184c1.322-1.216,2.354-2.519,3.067-3.873c0.8-1.521,1.206-3.11,1.206-4.723   C94.338,48.387,93.932,46.798,93.132,45.277z"/><path d="M68.656,39.029c-0.076-0.732-0.16-1.458-0.251-2.177c-0.001-0.009-0.002-0.019-0.003-0.028   c-0.001-0.005-0.001-0.01-0.002-0.014c-0.014-0.111-0.028-0.222-0.043-0.332c-0.001-0.008-0.002-0.016-0.003-0.024   c-0.002-0.016-0.004-0.033-0.006-0.049c-0.035-0.264-0.07-0.527-0.107-0.789c0-0.003-0.001-0.006-0.001-0.008   c0-0.001,0-0.003-0.001-0.004c-0.013-0.095-0.027-0.189-0.04-0.283c-0.005-0.036-0.01-0.072-0.015-0.108   c-0.001-0.009-0.003-0.017-0.004-0.026c-0.003-0.022-0.007-0.045-0.01-0.067c-0.016-0.107-0.031-0.213-0.047-0.319   c-0.002-0.011-0.003-0.022-0.005-0.032c-0.021-0.14-0.042-0.279-0.063-0.418c-0.022-0.139-0.044-0.278-0.065-0.416   c-0.044-0.277-0.089-0.552-0.135-0.826c0,0,0,0,0,0c-0.046-0.274-0.093-0.547-0.142-0.819h0c-0.057-0.321-0.116-0.64-0.177-0.958   c-0.27-1.419-0.572-2.803-0.905-4.145c-0.288-0.093-0.582-0.172-0.882-0.238c-0.032-0.007-0.063-0.014-0.095-0.02l-0.085-0.017   c-0.03-0.006-0.06-0.012-0.091-0.017c-0.03-0.006-0.061-0.011-0.091-0.017c-0.032-0.005-0.063-0.011-0.095-0.016   c-0.06-0.01-0.12-0.019-0.18-0.028c-0.004,0-0.008-0.001-0.012-0.002c-0.057-0.008-0.115-0.016-0.173-0.024   c-0.062-0.008-0.123-0.015-0.185-0.022c-0.006,0-0.012-0.001-0.018-0.002c-0.056-0.006-0.112-0.012-0.17-0.017   c-0.035-0.003-0.07-0.006-0.105-0.009c-0.059-0.005-0.117-0.008-0.176-0.012c-0.031-0.002-0.063-0.004-0.094-0.005   c-0.126-0.006-0.253-0.01-0.38-0.011c-0.032,0-0.063,0-0.095,0c-0.526,0-1.043,0.043-1.546,0.125   c-0.039,0.006-0.077,0.013-0.116,0.02c-0.077,0.014-0.154,0.028-0.23,0.044c-0.114,0.023-0.229,0.048-0.342,0.075   c-0.302,0.073-0.598,0.16-0.888,0.259c-0.036,0.013-0.073,0.026-0.109,0.039c-0.072,0.026-0.143,0.053-0.215,0.08   c-0.071,0.028-0.142,0.056-0.213,0.085l0,0c0.259,0.958,0.5,1.942,0.724,2.951c0.069,0.311,0.136,0.623,0.201,0.939v0   c0.02,0.099,0.04,0.198,0.061,0.297c0.012,0.061,0.025,0.122,0.037,0.183c0.017,0.085,0.034,0.169,0.05,0.254   c0.028,0.14,0.055,0.281,0.082,0.422c0.004,0.023,0.009,0.046,0.013,0.068c0.006,0.032,0.012,0.063,0.018,0.095   c0.014,0.073,0.028,0.147,0.041,0.22c0.006,0.03,0.011,0.061,0.017,0.091c0.003,0.016,0.006,0.031,0.008,0.047   c0.007,0.036,0.013,0.072,0.02,0.108c0.017,0.094,0.034,0.188,0.051,0.283c0.017,0.098,0.035,0.197,0.052,0.296   c0.01,0.057,0.02,0.115,0.03,0.172c0.014,0.081,0.028,0.161,0.042,0.242c0.006,0.037,0.012,0.073,0.018,0.11   c0.019,0.116,0.039,0.232,0.058,0.348c0.023,0.138,0.045,0.276,0.067,0.414c0.013,0.083,0.026,0.166,0.039,0.25   c0.009,0.057,0.018,0.113,0.026,0.17c0.021,0.138,0.042,0.277,0.063,0.416c0.021,0.143,0.042,0.287,0.062,0.431   c0.018,0.125,0.035,0.25,0.052,0.375c0.003,0.019,0.005,0.039,0.008,0.058c0.016,0.118,0.032,0.236,0.048,0.355   c0.006,0.046,0.012,0.092,0.018,0.138c0.015,0.112,0.029,0.223,0.044,0.335c0.018,0.142,0.036,0.285,0.054,0.427v0   c0.038,0.31,0.075,0.621,0.11,0.934c0.252,2.246,0.427,4.561,0.522,6.925c0.001,0.028,0.002,0.055,0.003,0.083   c0.011,0.279,0.021,0.558,0.03,0.838c0.001,0.025,0.002,0.049,0.002,0.074l0,0c-0.002,0-0.004,0-0.006,0c0,0,0,0,0,0c0,0,0,0,0,0   c0.002,0,0.004,0,0.006,0c0.033,1.057,0.049,2.122,0.049,3.195c0,1.073-0.016,2.138-0.049,3.195v0   c-0.001,0.025-0.001,0.05-0.002,0.074c-0.009,0.28-0.018,0.56-0.03,0.839c-0.001,0.028-0.002,0.055-0.003,0.083   c-0.095,2.364-0.27,4.679-0.522,6.925h0c0.097-0.012,0.193-0.025,0.289-0.037c0.089-0.011,0.177-0.023,0.265-0.034   c0.029-0.004,0.058-0.007,0.087-0.012c0.171-0.023,0.34-0.046,0.51-0.069c0.078-0.011,0.156-0.022,0.233-0.033   c0.048-0.007,0.096-0.014,0.145-0.021c0.108-0.015,0.216-0.031,0.324-0.047c0.078-0.011,0.156-0.023,0.234-0.035   c0.082-0.012,0.163-0.025,0.245-0.037c0.174-0.026,0.347-0.054,0.52-0.082c0.078-0.012,0.156-0.025,0.234-0.038   c0.043-0.007,0.086-0.014,0.129-0.021c0.066-0.011,0.131-0.022,0.196-0.033c0.093-0.015,0.186-0.031,0.278-0.047   c0.093-0.016,0.185-0.032,0.277-0.048c0.092-0.016,0.184-0.032,0.276-0.049c0.092-0.016,0.184-0.033,0.275-0.05   c0.097-0.017,0.193-0.035,0.289-0.054c0.025-0.004,0.049-0.009,0.074-0.014c0.084-0.015,0.168-0.031,0.252-0.048   c0.048-0.009,0.096-0.018,0.144-0.027c0.068-0.013,0.136-0.026,0.203-0.04c0.055-0.011,0.111-0.021,0.166-0.033   c0.078-0.015,0.155-0.031,0.232-0.046c0.117-0.024,0.234-0.047,0.351-0.071c0.013-0.003,0.026-0.005,0.038-0.008   c0.108-0.022,0.215-0.045,0.322-0.067v0c0.131-1.394,0.235-2.807,0.31-4.238c0.019-0.35,0.035-0.7,0.05-1.052v0c0,0,0,0,0,0   c0.021-0.479,0.038-0.959,0.053-1.441c0.01-0.323,0.018-0.647,0.024-0.971h0c0.016-0.768,0.024-1.54,0.024-2.315   c0-0.775-0.008-1.547-0.024-2.315c-0.006-0.324-0.015-0.648-0.024-0.971c-0.014-0.483-0.032-0.963-0.053-1.442h0v0l0,0l0,0v0   c-0.015-0.352-0.032-0.702-0.05-1.052c-0.076-1.431-0.18-2.845-0.31-4.239C68.72,39.663,68.689,39.345,68.656,39.029L68.656,39.029   L68.656,39.029z"/><path d="M34.541,23.021c-0.02,0.064-0.041,0.129-0.061,0.194c-0.02,0.063-0.039,0.126-0.059,0.189   c-0.001,0.003-0.002,0.005-0.003,0.008c-0.04,0.129-0.08,0.258-0.119,0.389c-0.033,0.109-0.066,0.218-0.099,0.327   c-0.017,0.058-0.035,0.117-0.052,0.175c-0.017,0.058-0.034,0.117-0.052,0.176c-0.026,0.089-0.051,0.178-0.077,0.267   c0,0.001-0.001,0.003-0.001,0.004c-0.003,0.011-0.006,0.023-0.01,0.034c-0.03,0.103-0.059,0.207-0.088,0.311   c-0.001,0.003-0.001,0.005-0.002,0.007c-0.032,0.114-0.064,0.229-0.095,0.344c-0.032,0.118-0.064,0.236-0.096,0.354   s-0.063,0.237-0.095,0.356v0c-0.09,0.34-0.177,0.683-0.263,1.029c-0.332,1.342-0.634,2.726-0.904,4.145h0   c0.546-0.095,1.097-0.186,1.653-0.273c0.139-0.022,0.278-0.043,0.417-0.064c0.139-0.021,0.279-0.042,0.419-0.062   c0.14-0.02,0.28-0.04,0.421-0.06c0.281-0.04,0.563-0.078,0.846-0.116c0.142-0.019,0.284-0.037,0.425-0.055   c0.142-0.018,0.285-0.036,0.427-0.054c0.126-0.015,0.251-0.031,0.377-0.046c0.026-0.003,0.052-0.006,0.078-0.009   c0.563-0.066,1.131-0.128,1.702-0.186v0c0.224-1.009,0.465-1.993,0.724-2.951c0.081-0.298,0.163-0.593,0.247-0.886l0,0h0v0   c0.226-0.786,0.463-1.554,0.713-2.299c0.031-0.093,0.063-0.186,0.094-0.278c0,0,0,0,0,0c0.034-0.1,0.069-0.2,0.103-0.299   c0.01-0.029,0.02-0.057,0.03-0.086c0.023-0.066,0.046-0.132,0.07-0.198c0.006-0.016,0.011-0.032,0.017-0.048   c0.002-0.006,0.004-0.012,0.006-0.017c0,0,0,0,0-0.001c0.021-0.059,0.042-0.117,0.063-0.175c0,0,0,0,0,0   c0.033-0.09,0.065-0.181,0.099-0.27c0,0,0,0,0,0c0.033-0.09,0.066-0.179,0.1-0.268c0,0,0,0,0,0   c0.034-0.089,0.067-0.178,0.101-0.266c0,0,0,0,0,0c0.034-0.088,0.068-0.176,0.102-0.264v0c0.027-0.069,0.054-0.138,0.081-0.207   c0,0,0,0,0,0c0.027-0.069,0.054-0.137,0.082-0.205c0,0,0,0,0,0c0.028-0.068,0.055-0.136,0.083-0.203v0   c0.055-0.135,0.111-0.269,0.166-0.402c0,0,0,0,0,0c0.028-0.066,0.056-0.132,0.084-0.198c0,0,0,0,0,0   c0.028-0.066,0.056-0.131,0.084-0.196c0,0,0,0,0,0c0.028-0.065,0.057-0.13,0.085-0.194h0l0,0c0.124-0.284,0.251-0.561,0.379-0.833   c1.052-2.23,2.21-4.056,3.407-5.357c1.336-1.453,2.631-2.19,3.851-2.19c1.22,0,2.515,0.737,3.851,2.19   c1.196,1.301,2.355,3.127,3.406,5.357h0v0c0.128-0.05,0.257-0.098,0.386-0.145c0.13-0.047,0.259-0.092,0.389-0.136   c0.26-0.087,0.522-0.169,0.785-0.244c0,0,0,0,0.001,0c0.263-0.075,0.528-0.143,0.794-0.206c0,0,0,0,0.001,0   c0.133-0.031,0.266-0.061,0.4-0.089c0.067-0.014,0.134-0.028,0.201-0.041c0.201-0.04,0.404-0.076,0.607-0.109   c0.135-0.022,0.271-0.042,0.407-0.061c0.408-0.056,0.818-0.099,1.231-0.127c0.138-0.009,0.276-0.017,0.414-0.024   c0.276-0.013,0.554-0.019,0.832-0.019c0.025,0,0.05,0,0.075,0v0c-1.5-3.544-3.24-6.405-5.184-8.519   c-1.216-1.322-2.519-2.354-3.873-3.067c-1.521-0.8-3.11-1.206-4.723-1.206c-1.613,0-3.202,0.406-4.723,1.206   c-1.354,0.713-2.658,1.744-3.873,3.067c-1.944,2.114-3.684,4.975-5.184,8.519c-0.128,0.301-0.254,0.608-0.377,0.919h0v0   c-0.025,0.064-0.051,0.128-0.076,0.192c0,0,0,0,0,0c-0.025,0.064-0.051,0.129-0.075,0.193l0,0   c-0.024,0.062-0.048,0.124-0.072,0.186c0,0,0,0,0,0c-0.024,0.062-0.048,0.125-0.071,0.187l0,0   c-0.024,0.063-0.047,0.125-0.071,0.188c0,0,0,0,0,0c-0.024,0.063-0.047,0.126-0.07,0.189c0,0,0,0,0,0   c-0.024,0.063-0.047,0.127-0.07,0.19c0,0,0,0,0,0c-0.012,0.032-0.023,0.063-0.034,0.095h0c-0.005,0.015-0.011,0.029-0.016,0.044   c-0.006,0.017-0.013,0.034-0.019,0.052c0,0,0,0,0,0c-0.012,0.032-0.023,0.064-0.034,0.096c-0.011,0.032-0.023,0.064-0.034,0.096   c-0.046,0.128-0.092,0.257-0.137,0.387l0,0c-0.023,0.064-0.045,0.129-0.067,0.194c0,0,0,0,0,0c-0.023,0.065-0.045,0.13-0.067,0.195   c0,0,0,0,0,0c-0.022,0.065-0.044,0.131-0.066,0.196c0,0,0,0,0,0c-0.022,0.066-0.044,0.131-0.066,0.197   C34.706,22.508,34.623,22.764,34.541,23.021z"/><path d="M33.369,72.816c0.115,0.037,0.231,0.072,0.348,0.105c0.029,0.008,0.059,0.016,0.088,0.024   c0.353,0.095,0.714,0.171,1.081,0.225c0.061,0.009,0.123,0.018,0.185,0.025c0.062,0.008,0.123,0.015,0.185,0.022   c0.063,0.007,0.125,0.013,0.187,0.018c0.062,0.005,0.124,0.01,0.187,0.015c0.011,0.001,0.022,0.002,0.034,0.002   c0.032,0.002,0.064,0.004,0.096,0.006c0.071,0.004,0.142,0.007,0.213,0.009c0.035,0.001,0.071,0.002,0.107,0.003   c0.071,0.002,0.143,0.003,0.214,0.003c0.239,0,0.476-0.009,0.711-0.026c0.034-0.003,0.067-0.005,0.1-0.008   c0.1-0.008,0.2-0.018,0.3-0.03c0.033-0.004,0.066-0.008,0.099-0.012c0.099-0.012,0.198-0.026,0.296-0.042   c0.033-0.005,0.065-0.011,0.098-0.016c0.033-0.005,0.065-0.011,0.098-0.017c0.033-0.005,0.065-0.012,0.097-0.018   c0.065-0.012,0.129-0.025,0.194-0.039c0.225-0.048,0.447-0.103,0.666-0.167c0.031-0.009,0.063-0.018,0.093-0.028   c0.03-0.009,0.061-0.018,0.091-0.028c0.002,0,0.004-0.001,0.005-0.002c0.03-0.009,0.06-0.019,0.09-0.029   c0.245-0.079,0.485-0.168,0.721-0.266v0c-0.259-0.958-0.5-1.942-0.724-2.951c-0.069-0.311-0.136-0.624-0.201-0.939h0v0   c-0.078-0.375-0.153-0.753-0.226-1.134c-0.009-0.048-0.018-0.097-0.028-0.145c-0.032-0.171-0.065-0.343-0.096-0.515   c-0.001-0.003-0.001-0.006-0.002-0.009h0c-0.037-0.203-0.073-0.407-0.109-0.611c0,0,0,0,0,0c-0.058-0.336-0.115-0.673-0.17-1.013   c-0.001-0.005-0.002-0.01-0.003-0.016c-0.001-0.004-0.001-0.007-0.002-0.011c-0.024-0.152-0.048-0.304-0.072-0.456   c-0.006-0.036-0.011-0.072-0.017-0.108c-0.021-0.139-0.042-0.279-0.063-0.419c-0.005-0.031-0.009-0.061-0.014-0.092   c-0.049-0.332-0.096-0.665-0.141-1c-0.001-0.009-0.003-0.018-0.004-0.028c-0.047-0.348-0.092-0.697-0.135-1.049h0   c-0.038-0.31-0.075-0.621-0.11-0.933c-0.252-2.246-0.427-4.562-0.522-6.925c-0.001-0.028-0.002-0.055-0.003-0.083   c-0.011-0.279-0.021-0.559-0.03-0.839c0,0,0,0,0,0c0,0,0,0,0,0c-0.001-0.025-0.002-0.05-0.002-0.074h0   c-0.033-1.057-0.049-2.122-0.049-3.195c0-1.073,0.016-2.138,0.049-3.195c0.019,0.001,0.038,0.002,0.057,0.003c0,0-0.001,0-0.001,0   c0,0,0.001,0,0.001,0c-0.019-0.001-0.038-0.003-0.057-0.004l0,0h0l0,0l0,0c0.001-0.025,0.001-0.05,0.002-0.074   c0.009-0.28,0.018-0.56,0.03-0.838c0.001-0.028,0.002-0.055,0.003-0.083c0.095-2.364,0.27-4.679,0.522-6.925   c-2.284,0.286-4.489,0.653-6.59,1.098c-0.131,1.394-0.235,2.808-0.31,4.239c-0.019,0.349-0.035,0.699-0.05,1.051c0,0,0,0,0,0.001   c-0.021,0.479-0.038,0.96-0.053,1.442v0c-0.01,0.323-0.018,0.646-0.024,0.971c-0.016,0.768-0.024,1.54-0.024,2.315   c0,0.775,0.008,1.547,0.024,2.315c0.006,0.325,0.015,0.648,0.024,0.971c0.014,0.482,0.032,0.962,0.053,1.441v0   c0.015,0.352,0.032,0.702,0.05,1.052v0c0.075,1.43,0.179,2.844,0.31,4.238c0.03,0.319,0.061,0.636,0.094,0.952v0   c0.24,2.313,0.555,4.567,0.943,6.741v0c0.057,0.321,0.116,0.64,0.177,0.958C32.735,70.09,33.036,71.473,33.369,72.816   L33.369,72.816L33.369,72.816z"/><path d="M65.143,77.942c0.022-0.066,0.044-0.131,0.066-0.197c0.015-0.044,0.03-0.089,0.044-0.133c0,0,0-0.001,0-0.001   c0.012-0.037,0.025-0.074,0.037-0.111c0.002-0.006,0.004-0.012,0.006-0.018c0.001-0.004,0.003-0.007,0.004-0.011   c0.015-0.045,0.029-0.09,0.044-0.135c0.009-0.029,0.019-0.058,0.028-0.087c0.026-0.079,0.051-0.159,0.077-0.239   c0.007-0.021,0.013-0.041,0.02-0.062c0.01-0.032,0.02-0.063,0.03-0.094c0.003-0.008,0.005-0.017,0.008-0.026   c0.02-0.062,0.039-0.125,0.059-0.187c0.005-0.015,0.01-0.03,0.014-0.046c0.008-0.026,0.016-0.053,0.024-0.079   c0.015-0.046,0.029-0.093,0.043-0.14c0.142-0.464,0.281-0.935,0.415-1.411c0.003-0.011,0.006-0.022,0.009-0.033   c0.036-0.127,0.071-0.255,0.106-0.383c0.006-0.022,0.012-0.044,0.018-0.066c0.009-0.032,0.018-0.065,0.026-0.097   c0.019-0.071,0.038-0.142,0.058-0.213c0.005-0.02,0.01-0.039,0.016-0.059c0.024-0.091,0.049-0.181,0.073-0.272c0,0,0,0,0,0   c0,0,0,0,0,0c0.09-0.34,0.177-0.683,0.263-1.028v0c0.332-1.342,0.634-2.726,0.905-4.145c-0.111,0.019-0.221,0.038-0.332,0.057   c-0.111,0.019-0.222,0.038-0.333,0.056c-0.11,0.019-0.22,0.037-0.329,0.054c-0.005,0.001-0.009,0.002-0.013,0.002   c-0.106,0.018-0.212,0.035-0.319,0.052c-0.011,0.002-0.023,0.004-0.034,0.005c-0.436,0.069-0.876,0.136-1.318,0.199   c-0.01,0.002-0.02,0.003-0.031,0.004c-0.096,0.014-0.192,0.028-0.288,0.041c-0.034,0.005-0.068,0.01-0.102,0.014   c-0.301,0.042-0.604,0.083-0.907,0.122c-0.028,0.004-0.057,0.008-0.086,0.011c-0.07,0.009-0.141,0.018-0.211,0.027   c-0.059,0.008-0.118,0.015-0.178,0.022c-0.089,0.011-0.178,0.022-0.267,0.033c-0.115,0.014-0.231,0.028-0.347,0.042   c-0.243,0.029-0.487,0.057-0.732,0.083c-0.093,0.011-0.188,0.021-0.281,0.031c-0.016,0.002-0.032,0.004-0.048,0.005   c-0.098,0.011-0.197,0.021-0.295,0.031c-0.104,0.011-0.209,0.022-0.314,0.033c-0.223,1.009-0.465,1.993-0.724,2.951   c-0.081,0.298-0.163,0.593-0.247,0.886v0c-0.028,0.098-0.056,0.196-0.085,0.294c-0.024,0.083-0.048,0.165-0.073,0.247   c-0.007,0.024-0.015,0.049-0.022,0.073c-0.024,0.08-0.048,0.16-0.072,0.24c-0.022,0.074-0.045,0.148-0.068,0.222   c-0.018,0.059-0.036,0.119-0.055,0.178c-0.02,0.066-0.041,0.132-0.062,0.197c-0.023,0.075-0.047,0.149-0.071,0.223   c-0.01,0.031-0.02,0.063-0.03,0.094c-0.019,0.06-0.039,0.12-0.059,0.18c-0.008,0.025-0.016,0.049-0.024,0.074   c-0.012,0.038-0.025,0.075-0.037,0.113c-0.018,0.055-0.036,0.109-0.054,0.163c-0.021,0.064-0.043,0.128-0.064,0.191   c-0.01,0.029-0.02,0.058-0.03,0.087c0,0,0,0,0,0c-0.092,0.269-0.185,0.535-0.28,0.798c-0.003,0.009-0.006,0.017-0.009,0.026   c0,0,0,0,0,0c-0.014,0.038-0.028,0.076-0.042,0.114c-0.019,0.052-0.037,0.104-0.057,0.156c0,0,0,0,0,0   c-0.016,0.045-0.033,0.09-0.05,0.134c-0.005,0.015-0.011,0.03-0.016,0.044c-0.011,0.03-0.022,0.06-0.033,0.09c0,0,0,0,0,0   c-0.032,0.084-0.064,0.168-0.095,0.252c-0.002,0.005-0.003,0.009-0.005,0.014c0,0,0,0,0,0c-0.034,0.088-0.068,0.176-0.102,0.264   l0,0c-0.008,0.02-0.016,0.04-0.024,0.06c-0.046,0.118-0.092,0.236-0.139,0.352c0,0,0,0,0,0c-0.006,0.016-0.013,0.032-0.019,0.048   c-0.043,0.107-0.086,0.214-0.13,0.319c-0.005,0.013-0.01,0.026-0.016,0.038c0,0,0,0,0,0c-0.007,0.017-0.014,0.035-0.022,0.052   c-0.047,0.113-0.094,0.225-0.141,0.337c-0.001,0.003-0.003,0.006-0.004,0.009c0,0,0,0,0,0c-0.007,0.015-0.013,0.03-0.02,0.046   c-0.048,0.113-0.097,0.225-0.146,0.336c-0.001,0.003-0.003,0.006-0.004,0.009l0,0c-0.125,0.283-0.251,0.561-0.38,0.833   c-1.051,2.23-2.21,4.056-3.406,5.358c-1.336,1.453-2.631,2.189-3.851,2.189c-1.22,0-2.515-0.737-3.851-2.189   c-1.197-1.302-2.355-3.127-3.406-5.357c-0.064,0.025-0.128,0.049-0.193,0.073c0,0,0,0,0,0c-0.032,0.012-0.064,0.024-0.096,0.035   c-0.064,0.024-0.129,0.047-0.194,0.07c-0.085,0.031-0.171,0.06-0.257,0.089c-0.012,0.004-0.023,0.008-0.035,0.012   c-0.046,0.016-0.093,0.031-0.139,0.046c-0.038,0.013-0.076,0.025-0.114,0.037c-0.032,0.01-0.063,0.02-0.095,0.03   c-0.068,0.022-0.135,0.042-0.203,0.063c-0.036,0.011-0.072,0.022-0.108,0.032c-0.029,0.009-0.058,0.017-0.087,0.025   c-0.04,0.012-0.08,0.023-0.12,0.034c-0.004,0.002-0.009,0.003-0.013,0.004c-0.051,0.015-0.103,0.029-0.154,0.042   c-0.054,0.015-0.107,0.029-0.161,0.043c-0.075,0.02-0.151,0.039-0.227,0.057c-0.044,0.011-0.087,0.022-0.131,0.032   c-0.021,0.005-0.042,0.01-0.063,0.014c-0.046,0.011-0.093,0.022-0.139,0.032c-0.015,0.004-0.031,0.007-0.047,0.01   c-0.041,0.009-0.082,0.018-0.123,0.027c-0.028,0.006-0.055,0.012-0.083,0.018c-0.11,0.023-0.22,0.045-0.331,0.066   c-0.043,0.009-0.087,0.016-0.13,0.024c-0.017,0.004-0.034,0.006-0.052,0.009c-0.044,0.008-0.087,0.015-0.131,0.023   c-0.015,0.003-0.031,0.006-0.046,0.008c-0.038,0.007-0.076,0.013-0.115,0.019c-0.023,0.004-0.045,0.007-0.068,0.011   c-0.092,0.015-0.184,0.028-0.276,0.041c-0.001,0-0.002,0-0.004,0c-0.041,0.006-0.082,0.012-0.123,0.017   c-0.021,0.003-0.043,0.006-0.064,0.009c-0.042,0.005-0.083,0.011-0.125,0.016c-0.013,0.002-0.025,0.003-0.038,0.005   c-0.049,0.006-0.097,0.012-0.146,0.017c-0.222,0.025-0.444,0.046-0.668,0.062c-0.056,0.005-0.112,0.008-0.168,0.012   c-0.056,0.004-0.112,0.007-0.168,0.01c-0.112,0.006-0.224,0.012-0.337,0.015c-0.056,0.003-0.112,0.004-0.169,0.005   c-0.056,0.002-0.113,0.003-0.169,0.004c-0.053,0.001-0.107,0.002-0.16,0.003c-0.015,0-0.029,0-0.044,0   c-0.045,0.001-0.09,0.001-0.135,0.001c-0.025,0-0.05,0-0.075,0c1.499,3.544,3.24,6.405,5.184,8.519   c1.215,1.322,2.519,2.354,3.873,3.067c1.521,0.8,3.11,1.206,4.723,1.206c1.613,0,3.203-0.406,4.723-1.206   c1.354-0.713,2.658-1.744,3.873-3.067c1.943-2.114,3.684-4.975,5.184-8.519c0.128-0.301,0.254-0.608,0.378-0.919c0,0,0,0,0,0   c0.001-0.003,0.002-0.006,0.004-0.009c0.024-0.061,0.048-0.122,0.073-0.184c0,0,0,0,0,0c0.018-0.045,0.035-0.09,0.053-0.135   c0.008-0.019,0.015-0.038,0.023-0.058c0.001-0.002,0.002-0.005,0.003-0.007c0.023-0.06,0.046-0.119,0.069-0.179l0,0   c0.015-0.039,0.03-0.078,0.045-0.117c0.015-0.039,0.029-0.077,0.044-0.116c0.018-0.048,0.036-0.095,0.054-0.143c0,0,0,0,0,0   c0.014-0.038,0.028-0.076,0.043-0.114c0.014-0.038,0.028-0.075,0.042-0.113c0.019-0.051,0.037-0.101,0.056-0.152c0,0,0,0,0,0   c0.013-0.036,0.027-0.073,0.04-0.11c0.002-0.004,0.003-0.009,0.005-0.013c0.069-0.189,0.136-0.379,0.204-0.57   c0.009-0.025,0.018-0.051,0.027-0.076c0,0,0,0,0,0c0.013-0.038,0.027-0.077,0.04-0.115c0.013-0.037,0.025-0.073,0.038-0.11   c0.019-0.055,0.038-0.11,0.056-0.165c0,0,0,0,0,0c0.014-0.042,0.028-0.083,0.042-0.125C65.127,77.99,65.135,77.966,65.143,77.942   L65.143,77.942z"/><path d="M20.488,42.363c0.067,0.175,0.137,0.349,0.21,0.522c0.046,0.108,0.092,0.215,0.14,0.322   c0.844,1.887,2.016,3.588,3.487,5.058c0.408,0.408,0.834,0.794,1.277,1.155c0.246,0.201,0.496,0.394,0.752,0.58c0,0,0,0,0,0   c1.038,0.754,2.158,1.387,3.351,1.891c0.062,0.026,0.124,0.052,0.186,0.077c0,0,0,0,0,0c0,0,0,0,0,0   c-0.012-0.654-0.017-1.311-0.017-1.969c0-0.659,0.006-1.315,0.017-1.969c0.006-0.331,0.013-0.662,0.022-0.991v0   c0.021-0.793,0.051-1.583,0.089-2.367c-1.273-0.958-2.321-2.2-3.051-3.63c-0.14-0.274-0.268-0.554-0.383-0.841l0,0l0,0   c-0.091-0.226-0.175-0.457-0.25-0.691c-0.327-1.014-0.504-2.094-0.504-3.215c0-0.201,0.006-0.401,0.017-0.6   c0.002-0.028,0.004-0.057,0.005-0.085c0.006-0.085,0.012-0.17,0.02-0.254c0.053-0.59,0.155-1.167,0.301-1.725   c0.092-0.35,0.202-0.694,0.328-1.029c1.062-2.815,3.304-5.056,6.119-6.119v0c0.64-2.512,1.387-4.876,2.235-7.056   c-1.771,0.15-3.491,0.576-5.133,1.27c-2.016,0.853-3.826,2.073-5.38,3.627c-1.554,1.554-2.774,3.363-3.627,5.38   c-0.694,1.642-1.12,3.363-1.27,5.133c-0.028,0.333-0.047,0.668-0.056,1.004l0,0c-0.002,0.075-0.003,0.151-0.005,0.226   c-0.001,0.076-0.001,0.151-0.001,0.227c0,1.833,0.288,3.622,0.859,5.338C20.308,41.878,20.395,42.121,20.488,42.363z"/><path d="M47.039,29.913c0.073-0.189,0.148-0.377,0.228-0.564c0.567-1.34,1.287-2.593,2.153-3.747   c-0.361-0.443-0.746-0.869-1.155-1.277c-1.47-1.471-3.171-2.642-5.058-3.487c-0.225,0.51-0.444,1.04-0.658,1.588   c-0.551,1.418-1.055,2.931-1.508,4.524v0c1.43,0.729,2.672,1.778,3.63,3.051C45.457,29.964,46.246,29.934,47.039,29.913z"/><path d="M46.195,39.74c-1.051,3.013-3.442,5.404-6.455,6.455c0.08,0.016,0.16,0.032,0.24,0.049c0.064,0.014,0.127,0.027,0.19,0.041   c0.036,0.008,0.072,0.016,0.108,0.025c0.01,0.002,0.021,0.005,0.031,0.007c0.03,0.007,0.059,0.014,0.088,0.02   c0.019,0.005,0.037,0.009,0.056,0.014c0.023,0.005,0.045,0.011,0.067,0.016c0.038,0.009,0.076,0.019,0.114,0.028   c0.038,0.009,0.077,0.019,0.116,0.029c0.034,0.009,0.069,0.018,0.103,0.027c0.034,0.009,0.069,0.018,0.103,0.028   c0.033,0.009,0.066,0.018,0.099,0.027c0.019,0.005,0.038,0.01,0.056,0.015c0.005,0.002,0.011,0.003,0.016,0.005   c0.075,0.021,0.149,0.043,0.224,0.065c0.029,0.008,0.057,0.017,0.086,0.025c0.003,0.001,0.006,0.002,0.01,0.003   c0.005,0.001,0.009,0.003,0.014,0.004c0.043,0.013,0.086,0.026,0.129,0.04c0.047,0.015,0.095,0.03,0.142,0.045   c0.025,0.008,0.049,0.016,0.074,0.024c0.025,0.008,0.051,0.016,0.077,0.025c0.039,0.013,0.077,0.025,0.116,0.039   c0.039,0.013,0.077,0.026,0.116,0.039c0.028,0.01,0.056,0.02,0.084,0.03c0.07,0.024,0.14,0.05,0.21,0.075   c0.035,0.013,0.07,0.026,0.105,0.039c0.064,0.024,0.129,0.048,0.193,0.073c0.005,0.002,0.01,0.004,0.015,0.006   c0.035,0.013,0.069,0.027,0.104,0.041c0.034,0.014,0.069,0.027,0.104,0.041c0.035,0.014,0.069,0.028,0.104,0.042   c0.069,0.028,0.138,0.057,0.207,0.086c0.064,0.027,0.128,0.055,0.192,0.083c0.004,0.002,0.008,0.004,0.012,0.005   c0.057,0.025,0.114,0.05,0.171,0.076c0.055,0.025,0.111,0.05,0.166,0.076c0.004,0.002,0.007,0.003,0.011,0.005   c0.02,0.009,0.04,0.018,0.06,0.028c0.002,0.001,0.005,0.002,0.007,0.003c0.007,0.004,0.015,0.007,0.022,0.01   c0.034,0.016,0.068,0.032,0.102,0.048c0.001,0,0.001,0.001,0.002,0.001c0.082,0.039,0.163,0.079,0.244,0.119   c0.056,0.028,0.111,0.056,0.167,0.084c0.009,0.005,0.019,0.009,0.029,0.015c0.056,0.028,0.111,0.057,0.167,0.086   c0.08,0.042,0.16,0.084,0.239,0.128c0.049,0.027,0.098,0.054,0.147,0.081c0.004,0.002,0.009,0.005,0.013,0.007   c0.043,0.024,0.086,0.048,0.129,0.073c0.021,0.012,0.043,0.025,0.064,0.037c0.035,0.02,0.071,0.041,0.106,0.061   c0.007,0.004,0.013,0.008,0.02,0.012c0.036,0.021,0.072,0.042,0.108,0.064c0.039,0.023,0.077,0.046,0.116,0.069   c0.034,0.021,0.069,0.042,0.103,0.063l0.013,0.008c0.002,0.001,0.004,0.003,0.006,0.004c0.034,0.02,0.067,0.041,0.1,0.062   c0.003,0.002,0.005,0.003,0.008,0.005c0.038,0.024,0.076,0.048,0.114,0.072c0.027,0.017,0.054,0.034,0.081,0.052   c0.017,0.011,0.035,0.022,0.052,0.034c0.064,0.042,0.128,0.084,0.192,0.126c0.005,0.003,0.01,0.006,0.014,0.01   c0.002,0.001,0.003,0.002,0.005,0.003c0.036,0.024,0.072,0.048,0.107,0.073c0.075,0.05,0.149,0.102,0.222,0.154   c0.004,0.003,0.008,0.005,0.012,0.008c0.033,0.023,0.066,0.047,0.098,0.07c0.073,0.052,0.146,0.105,0.219,0.159   c0.036,0.027,0.072,0.054,0.108,0.081c0.443-0.361,0.869-0.747,1.277-1.155s0.794-0.834,1.155-1.277   c0.201-0.246,0.394-0.496,0.58-0.752c0.754-1.038,1.387-2.158,1.891-3.351c0.636-1.505,1.047-3.076,1.226-4.691h0   c-1.031-0.031-2.071-0.047-3.118-0.047c-1.047,0-2.087,0.015-3.118,0.047c0-0.003-0.001-0.006-0.001-0.009c0,0,0,0,0,0   c0,0.003,0.001,0.006,0.001,0.009c-0.093,0.003-0.186,0.005-0.279,0.009C46.505,38.73,46.368,39.243,46.195,39.74z"/><path d="M61.812,46.881c-0.002,0-0.004,0-0.007,0.001c-0.003-0.093-0.005-0.186-0.009-0.279c-0.527-0.097-1.04-0.234-1.537-0.407h0   c-3.013-1.052-5.403-3.442-6.455-6.455c-0.234,1.197-0.592,2.366-1.072,3.501c-0.567,1.34-1.287,2.593-2.153,3.747   c0.361,0.443,0.747,0.869,1.155,1.277s0.834,0.794,1.277,1.155c0.246,0.201,0.496,0.394,0.752,0.58c0,0,0,0,0,0   c1.038,0.754,2.158,1.387,3.351,1.891c1.505,0.636,3.076,1.047,4.691,1.226c0,0,0,0,0,0c0,0,0,0,0,0v0   c0.031-1.031,0.047-2.071,0.047-3.118c0-1.047-0.015-2.087-0.047-3.118C61.808,46.882,61.81,46.881,61.812,46.881   C61.812,46.881,61.812,46.881,61.812,46.881z"/><path d="M63.513,19.368c-0.004,0-0.008,0-0.012,0c-0.258,0.003-0.516,0.012-0.773,0.026c0,0,0,0,0,0   c-0.13,0.007-0.259,0.016-0.388,0.026h0c-0.064,0.005-0.129,0.011-0.193,0.017h0c-0.064,0.006-0.129,0.012-0.193,0.019   c0,0-0.001,0-0.001,0c-0.055,0.005-0.111,0.012-0.166,0.018c-0.016,0.002-0.032,0.004-0.048,0.005   c-0.053,0.006-0.105,0.012-0.158,0.019c-0.069,0.009-0.137,0.017-0.206,0.027c-0.014,0.002-0.027,0.004-0.041,0.006   c-0.004,0.001-0.007,0.001-0.011,0.002c-0.046,0.006-0.093,0.013-0.14,0.02h0c-0.064,0.009-0.127,0.019-0.191,0.03h0   c-0.048,0.008-0.095,0.015-0.143,0.024c-0.006,0.001-0.012,0.002-0.018,0.003c-0.036,0.006-0.072,0.012-0.107,0.019   c-0.037,0.007-0.075,0.014-0.112,0.02c-0.008,0.001-0.015,0.003-0.023,0.004c-0.003,0.001-0.006,0.001-0.009,0.002   c-0.041,0.008-0.082,0.015-0.122,0.024c-0.062,0.012-0.124,0.025-0.186,0.037c-0.006,0.001-0.012,0.003-0.017,0.004   c-0.007,0.002-0.015,0.003-0.022,0.005c-0.018,0.004-0.036,0.008-0.054,0.012c-0.045,0.009-0.09,0.019-0.135,0.029   c-0.006,0.002-0.013,0.003-0.02,0.005c-0.003,0.001-0.005,0.001-0.008,0.002c-0.054,0.012-0.107,0.024-0.16,0.036   c-0.001,0-0.002,0-0.003,0.001c-0.052,0.012-0.104,0.024-0.156,0.037c-0.009,0.002-0.019,0.005-0.029,0.007   c-0.009,0.002-0.017,0.004-0.026,0.006c-0.005,0.001-0.01,0.003-0.015,0.004c-0.031,0.008-0.063,0.015-0.094,0.024   c-0.004,0.001-0.008,0.002-0.012,0.003c-0.029,0.007-0.057,0.015-0.086,0.022c-0.034,0.009-0.069,0.018-0.103,0.027   c-0.012,0.003-0.024,0.006-0.035,0.009c-0.001,0-0.002,0.001-0.003,0.001c-0.048,0.013-0.097,0.026-0.145,0.04   c-0.006,0.002-0.011,0.003-0.017,0.005c-0.026,0.007-0.052,0.015-0.079,0.022c-0.029,0.008-0.058,0.017-0.087,0.025   c-0.006,0.002-0.013,0.004-0.019,0.005c-0.008,0.003-0.017,0.005-0.025,0.007c-0.002,0.001-0.004,0.001-0.006,0.002   c-0.009,0.003-0.018,0.006-0.027,0.008c-0.067,0.02-0.134,0.04-0.201,0.061c-0.035,0.011-0.07,0.022-0.105,0.033   c-0.005,0.002-0.01,0.003-0.015,0.005c-0.001,0-0.002,0.001-0.003,0.001c-0.004,0.001-0.008,0.003-0.013,0.004c0,0,0,0,0,0   c-0.021,0.007-0.042,0.013-0.062,0.02c-0.041,0.013-0.081,0.026-0.122,0.04c-0.009,0.003-0.018,0.006-0.028,0.009   c-0.042,0.014-0.084,0.028-0.126,0.043c-0.023,0.008-0.047,0.016-0.07,0.024c-0.001,0-0.002,0.001-0.003,0.001   c-0.046,0.016-0.093,0.033-0.14,0.049h0c-0.061,0.022-0.122,0.044-0.182,0.067c0,0,0,0,0,0c-0.061,0.023-0.121,0.045-0.181,0.068v0   h0c-0.175,0.067-0.349,0.137-0.522,0.21c-0.108,0.046-0.215,0.092-0.322,0.14c-1.887,0.844-3.587,2.016-5.058,3.487   c-0.408,0.408-0.794,0.834-1.155,1.277c-0.201,0.246-0.395,0.496-0.58,0.752c-0.755,1.038-1.388,2.158-1.892,3.351   c-0.026,0.062-0.052,0.124-0.077,0.186c0.654-0.012,1.31-0.017,1.969-0.017s1.315,0.006,1.969,0.017   c0.331,0.006,0.662,0.013,0.992,0.022c0.793,0.021,1.582,0.051,2.367,0.089h0c0.959-1.273,2.2-2.321,3.631-3.051   c0.273-0.14,0.553-0.268,0.84-0.383h0c0.038-0.015,0.076-0.03,0.113-0.045l0.114-0.044c0.038-0.014,0.076-0.028,0.115-0.043h0   c0.038-0.014,0.077-0.027,0.115-0.041h0c0.039-0.014,0.077-0.027,0.116-0.04c0.011-0.003,0.021-0.007,0.032-0.01   c0.002-0.001,0.004-0.001,0.007-0.002c0.004-0.001,0.009-0.003,0.013-0.004c0.022-0.007,0.043-0.014,0.065-0.021   c0.039-0.013,0.078-0.025,0.117-0.037h0c0.039-0.012,0.078-0.024,0.117-0.036c0,0,0,0,0.001,0c0.005-0.002,0.01-0.003,0.016-0.005   c0.024-0.007,0.049-0.014,0.073-0.021c0.021-0.006,0.042-0.012,0.063-0.018c0.059-0.017,0.118-0.033,0.178-0.048   c0.002-0.001,0.005-0.001,0.007-0.002c0.007-0.002,0.014-0.004,0.021-0.006c0.034-0.009,0.069-0.017,0.104-0.026   c0.026-0.007,0.052-0.013,0.078-0.019c0.006-0.001,0.012-0.003,0.018-0.004c0.003-0.001,0.005-0.001,0.008-0.002   c0.011-0.003,0.022-0.005,0.033-0.008c0,0,0,0,0.001,0c0.028-0.007,0.056-0.013,0.085-0.02l0,0c0.005-0.001,0.01-0.002,0.015-0.004   c0.007-0.001,0.014-0.003,0.02-0.005c0.025-0.005,0.05-0.011,0.075-0.016c0.024-0.005,0.047-0.01,0.071-0.015   c0.007-0.001,0.013-0.003,0.02-0.004c0.026-0.005,0.052-0.011,0.078-0.016c0.003-0.001,0.005-0.001,0.008-0.002   c0.028-0.005,0.057-0.011,0.085-0.016c0.056-0.011,0.113-0.021,0.17-0.03c0.035-0.006,0.071-0.012,0.106-0.017h0   c0.033-0.005,0.065-0.01,0.098-0.015c0.009-0.001,0.017-0.003,0.026-0.004c0,0,0,0,0,0c0.012-0.002,0.024-0.003,0.036-0.005   c0.059-0.008,0.118-0.016,0.177-0.024c0.012-0.002,0.024-0.003,0.036-0.005h0c0.009-0.001,0.018-0.002,0.028-0.003   c0.032-0.004,0.065-0.008,0.097-0.011c0,0,0,0,0,0c0.333-0.036,0.671-0.057,1.013-0.062c0.002,0,0.005,0,0.006,0   c0.043,0,0.086-0.001,0.129-0.001c0.566,0,1.122,0.045,1.664,0.132c0.339,0.054,0.672,0.125,0.999,0.211l0,0l0,0h0   c0.35,0.092,0.693,0.201,1.028,0.328c2.815,1.062,5.056,3.303,6.119,6.119c2.512,0.64,4.876,1.387,7.056,2.235h0   c-0.15-1.771-0.576-3.491-1.27-5.133c-0.853-2.016-2.073-3.826-3.626-5.38c-1.554-1.554-3.364-2.774-5.38-3.627   c-1.642-0.694-3.363-1.12-5.134-1.27c-0.333-0.028-0.668-0.047-1.004-0.056h0c-0.151-0.004-0.301-0.006-0.453-0.006   C63.641,19.367,63.577,19.367,63.513,19.368z"/><path d="M70.651,47.267c1.34,0.567,2.593,1.287,3.747,2.153c0.443-0.361,0.869-0.747,1.277-1.155   c1.47-1.47,2.642-3.171,3.486-5.058h0c-0.51-0.225-1.039-0.444-1.588-0.658c-1.418-0.551-2.931-1.055-4.524-1.508   c-0.729,1.43-1.778,2.672-3.051,3.631c0.038,0.785,0.068,1.574,0.089,2.367C70.276,47.112,70.464,47.188,70.651,47.267z"/><path d="M36.295,80.633C36.295,80.633,36.295,80.633,36.295,80.633C36.295,80.633,36.296,80.633,36.295,80.633   c0.072,0,0.144-0.001,0.216-0.001c0.003,0,0.007,0,0.01,0c0.112-0.001,0.224-0.004,0.335-0.008c0.007,0,0.013,0,0.02-0.001   c0.114-0.004,0.227-0.009,0.341-0.015c0.019-0.001,0.037-0.002,0.056-0.003c0.056-0.003,0.111-0.007,0.167-0.011   c0.231-0.015,0.461-0.035,0.691-0.06c0.014-0.001,0.027-0.003,0.041-0.004c0.002,0,0.004-0.001,0.006-0.001   c0.078-0.009,0.156-0.018,0.233-0.027c0.007-0.001,0.015-0.002,0.023-0.003c0.003,0,0.006-0.001,0.01-0.001   c0.025-0.003,0.051-0.007,0.076-0.01c0.035-0.005,0.071-0.009,0.106-0.014c0.03-0.004,0.059-0.009,0.089-0.013   c0.042-0.006,0.084-0.012,0.125-0.018c0.003,0,0.005-0.001,0.008-0.001c0,0,0.001,0,0.001,0c0.089-0.013,0.178-0.028,0.267-0.043   c0.028-0.005,0.056-0.009,0.084-0.014c0.025-0.004,0.049-0.009,0.074-0.013c0.048-0.009,0.096-0.017,0.144-0.026   c0.01-0.002,0.021-0.004,0.031-0.006c0.044-0.008,0.087-0.016,0.131-0.025c0.033-0.007,0.066-0.013,0.099-0.02   c0.023-0.005,0.046-0.009,0.069-0.014c0.007-0.001,0.014-0.003,0.021-0.004h0c0.021-0.005,0.043-0.009,0.064-0.014   c0.033-0.007,0.065-0.014,0.097-0.021c0.009-0.002,0.018-0.004,0.027-0.006c0.01-0.002,0.02-0.005,0.03-0.007   c0.138-0.031,0.276-0.063,0.413-0.098c0.007-0.002,0.013-0.003,0.02-0.005c0.002-0.001,0.005-0.001,0.007-0.002   c0.064-0.016,0.128-0.033,0.192-0.049c0.011-0.003,0.022-0.006,0.033-0.009c0.231-0.061,0.46-0.128,0.689-0.199   c0.001,0,0.002-0.001,0.003-0.001c0,0,0.001,0,0.001,0c0.308-0.096,0.613-0.201,0.915-0.315c0.022-0.008,0.044-0.016,0.065-0.025   c0.001,0,0.002-0.001,0.003-0.001c0.012-0.005,0.024-0.009,0.037-0.014c0.175-0.067,0.349-0.138,0.522-0.211   c0.108-0.045,0.215-0.092,0.322-0.14c1.887-0.844,3.588-2.016,5.058-3.486c0.408-0.408,0.794-0.834,1.155-1.277   c0.201-0.246,0.394-0.496,0.58-0.752c0.754-1.038,1.387-2.158,1.891-3.351c0.026-0.062,0.052-0.124,0.078-0.187   c-0.654,0.012-1.311,0.017-1.969,0.017c-0.659,0-1.315-0.006-1.969-0.017c-0.331-0.006-0.661-0.013-0.991-0.022h0   c-0.793-0.021-1.583-0.051-2.367-0.089c-0.959,1.273-2.2,2.322-3.631,3.051c-0.274,0.14-0.554,0.268-0.841,0.383c0,0,0,0,0,0   c0,0,0,0,0,0c-0.002,0.001-0.005,0.002-0.007,0.003c-0.06,0.024-0.12,0.047-0.181,0.07c-0.024,0.009-0.048,0.018-0.072,0.027   c-0.065,0.024-0.131,0.048-0.196,0.071c-0.001,0-0.001,0-0.002,0.001c-0.001,0-0.002,0.001-0.004,0.001   c-0.075,0.026-0.15,0.051-0.226,0.076c-0.001,0-0.002,0.001-0.004,0.001c-0.001,0-0.002,0.001-0.003,0.001   c-0.074,0.024-0.148,0.047-0.222,0.069c-0.003,0.001-0.007,0.002-0.01,0.003c-0.003,0.001-0.006,0.002-0.009,0.002   c-0.062,0.018-0.125,0.036-0.188,0.053c-0.003,0.001-0.006,0.002-0.009,0.002c-0.011,0.003-0.021,0.006-0.032,0.009   c-0.011,0.003-0.021,0.006-0.032,0.008c-0.059,0.016-0.118,0.031-0.177,0.046c-0.018,0.005-0.036,0.009-0.054,0.013   c-0.007,0.002-0.015,0.004-0.022,0.005c-0.053,0.013-0.105,0.025-0.158,0.037c-0.02,0.004-0.04,0.009-0.06,0.013   c-0.007,0.002-0.014,0.003-0.021,0.005c-0.059,0.013-0.117,0.025-0.176,0.037c-0.008,0.002-0.017,0.003-0.025,0.005   c-0.005,0.001-0.01,0.002-0.015,0.003c-0.069,0.013-0.139,0.026-0.209,0.038c-0.007,0.001-0.015,0.003-0.022,0.004   c-0.004,0.001-0.008,0.001-0.011,0.002c-0.069,0.012-0.139,0.023-0.208,0.033c-0.022,0.003-0.043,0.006-0.065,0.009   c-0.056,0.008-0.111,0.015-0.167,0.022c-0.021,0.003-0.043,0.006-0.064,0.008c-0.067,0.008-0.134,0.015-0.201,0.022   c-0.025,0.002-0.049,0.005-0.074,0.007c-0.067,0.006-0.133,0.012-0.2,0.017c-0.014,0.001-0.028,0.002-0.041,0.003   c-0.059,0.004-0.118,0.008-0.178,0.011c-0.019,0.001-0.038,0.002-0.058,0.003c-0.02,0.001-0.04,0.001-0.059,0.002   c-0.056,0.002-0.112,0.005-0.168,0.006c-0.018,0-0.035,0.001-0.053,0.001c-0.074,0.002-0.149,0.003-0.224,0.003   c-0.92,0-1.812-0.119-2.663-0.343h0c-0.35-0.092-0.694-0.202-1.029-0.328c-2.815-1.063-5.056-3.304-6.119-6.119h0   c-2.512-0.64-4.876-1.387-7.056-2.235c0.15,1.771,0.576,3.492,1.27,5.134c0.853,2.016,2.073,3.826,3.627,5.38   c1.554,1.554,3.363,2.774,5.38,3.626c1.642,0.695,3.363,1.12,5.133,1.27c0.333,0.028,0.667,0.047,1.004,0.056v0h0   C35.993,80.632,36.144,80.633,36.295,80.633C36.295,80.633,36.295,80.633,36.295,80.633z"/><path d="M29.349,52.733c-1.34-0.567-2.593-1.287-3.747-2.153c-0.443,0.361-0.869,0.746-1.277,1.155   c-1.47,1.47-2.642,3.171-3.487,5.058c0.51,0.225,1.04,0.444,1.588,0.658c1.418,0.551,2.931,1.055,4.524,1.508   c0.73-1.43,1.778-2.672,3.051-3.631c-0.038-0.785-0.068-1.574-0.089-2.367C29.724,52.888,29.536,52.813,29.349,52.733z"/><path d="M39.74,53.805c3.013,1.051,5.403,3.442,6.455,6.455c0.234-1.197,0.592-2.367,1.072-3.501   c0.567-1.34,1.287-2.593,2.153-3.747c-0.361-0.443-0.746-0.869-1.155-1.277c-0.408-0.408-0.834-0.794-1.277-1.155   c-0.246-0.201-0.496-0.394-0.752-0.58c0,0,0,0,0,0c-0.033-0.024-0.065-0.047-0.098-0.07c-0.026-0.019-0.053-0.038-0.08-0.057   c-0.072-0.051-0.143-0.101-0.216-0.15c-0.029-0.02-0.059-0.04-0.088-0.06c-0.004-0.003-0.007-0.005-0.011-0.008   c-0.042-0.028-0.084-0.056-0.126-0.084c-0.024-0.016-0.047-0.032-0.071-0.047c-0.05-0.033-0.1-0.065-0.15-0.097   c-0.047-0.03-0.095-0.06-0.142-0.09c-0.014-0.009-0.028-0.018-0.042-0.026c-0.04-0.025-0.08-0.05-0.12-0.074   c-0.019-0.012-0.039-0.024-0.058-0.035c-0.045-0.027-0.09-0.054-0.135-0.08c-0.033-0.02-0.066-0.039-0.1-0.058   c-0.05-0.029-0.099-0.058-0.149-0.086c-0.046-0.026-0.093-0.053-0.14-0.078c-0.023-0.013-0.045-0.025-0.068-0.038   c-0.023-0.013-0.045-0.025-0.068-0.037c-0.024-0.013-0.048-0.026-0.073-0.039c-0.035-0.019-0.071-0.038-0.106-0.057   c-0.027-0.014-0.054-0.028-0.081-0.042c-0.015-0.008-0.03-0.016-0.045-0.024c-0.004-0.002-0.008-0.004-0.012-0.006   c-0.025-0.013-0.05-0.026-0.075-0.039c-0.013-0.007-0.026-0.014-0.04-0.02c-0.002-0.001-0.004-0.002-0.005-0.003   c-0.035-0.018-0.07-0.036-0.105-0.053c-0.037-0.018-0.074-0.037-0.111-0.055c-0.041-0.02-0.082-0.04-0.122-0.059   c-0.05-0.024-0.101-0.048-0.151-0.072c-0.003-0.001-0.005-0.003-0.008-0.004c-0.052-0.025-0.105-0.048-0.157-0.072   c0,0-0.001-0.001-0.001-0.001c-0.011-0.005-0.022-0.01-0.033-0.015c-0.046-0.021-0.093-0.042-0.14-0.062   c-0.074-0.033-0.148-0.064-0.223-0.096c-0.046-0.019-0.092-0.039-0.138-0.058c-0.048-0.02-0.097-0.04-0.145-0.059   c-0.037-0.015-0.073-0.029-0.11-0.044c-0.014-0.006-0.028-0.011-0.043-0.017c-0.044-0.017-0.088-0.034-0.132-0.051   c-0.033-0.013-0.066-0.025-0.1-0.038c-0.002-0.001-0.005-0.002-0.007-0.003c-0.027-0.01-0.054-0.02-0.081-0.03   c-0.044-0.016-0.089-0.033-0.133-0.048c-0.055-0.02-0.111-0.04-0.167-0.059c-0.031-0.011-0.061-0.021-0.092-0.032   c-0.035-0.012-0.071-0.024-0.106-0.035c-0.044-0.015-0.088-0.029-0.132-0.044c-0.034-0.011-0.068-0.022-0.102-0.033   c-0.01-0.004-0.021-0.007-0.031-0.01c-0.005-0.002-0.01-0.003-0.015-0.005c-0.052-0.016-0.104-0.033-0.157-0.048   c-0.027-0.008-0.054-0.016-0.081-0.024c-0.055-0.016-0.11-0.032-0.164-0.048c-0.005-0.001-0.009-0.003-0.013-0.004   c-0.024-0.007-0.049-0.014-0.073-0.021c-0.024-0.007-0.049-0.014-0.073-0.02c-0.044-0.012-0.089-0.025-0.134-0.036   c-0.01-0.003-0.021-0.006-0.031-0.008c-0.024-0.006-0.047-0.013-0.07-0.018c-0.024-0.006-0.047-0.012-0.07-0.018   c-0.028-0.007-0.055-0.014-0.083-0.021c-0.001,0-0.002,0-0.003-0.001c-0.002,0-0.004-0.001-0.005-0.001   c-0.072-0.018-0.143-0.035-0.215-0.052c-0.034-0.008-0.067-0.016-0.101-0.024c-0.037-0.008-0.074-0.017-0.111-0.025   c-0.04-0.009-0.08-0.018-0.121-0.026c-0.026-0.005-0.053-0.011-0.079-0.016c-0.069-0.014-0.138-0.028-0.206-0.042   c-0.034-0.007-0.069-0.013-0.103-0.02c-0.042-0.008-0.083-0.016-0.125-0.023c-0.006-0.001-0.012-0.002-0.019-0.003c0,0,0,0,0,0   c-0.005-0.001-0.011-0.002-0.017-0.003c-0.003-0.001-0.006-0.001-0.01-0.002c-0.036-0.006-0.071-0.013-0.107-0.019   c-0.01-0.002-0.021-0.004-0.031-0.005c-0.002,0-0.003,0-0.004-0.001c-0.003-0.001-0.007-0.001-0.01-0.002   c-0.048-0.008-0.096-0.016-0.145-0.024c-0.052-0.008-0.104-0.016-0.156-0.024c-0.014-0.002-0.029-0.004-0.043-0.006   c-0.007-0.001-0.013-0.002-0.019-0.003c-0.001,0-0.001,0-0.002,0c-0.003,0-0.005-0.001-0.008-0.001   c-0.007-0.001-0.015-0.002-0.022-0.003c-0.006-0.001-0.013-0.002-0.02-0.003c-0.053-0.008-0.107-0.015-0.16-0.022   c-0.004-0.001-0.007-0.001-0.01-0.002c-0.017-0.002-0.034-0.005-0.052-0.007c-0.039-0.005-0.077-0.01-0.116-0.014   c-0.006-0.001-0.012-0.002-0.017-0.002c-0.018-0.002-0.035-0.005-0.053-0.006c0,0,0,0,0,0l0,0c0,0,0,0,0,0   c-0.038-0.005-0.077-0.009-0.115-0.013l0,0c0,0,0,0,0,0c-0.031,1.031-0.047,2.071-0.047,3.118c0,1.047,0.015,2.087,0.047,3.118   c0.003,0.093,0.005,0.186,0.009,0.279v0C38.731,53.495,39.244,53.632,39.74,53.805z"/><path d="M19.759,64.31c0.754,0.293,1.53,0.574,2.327,0.842c1.303,0.439,2.662,0.845,4.07,1.216h0   c0.34,0.09,0.683,0.177,1.028,0.263h0c1.342,0.332,2.725,0.634,4.144,0.905h0v0c-0.31-1.775-0.572-3.601-0.785-5.468   c-0.049-0.431-0.095-0.863-0.139-1.298h0c-1.009-0.224-1.993-0.465-2.95-0.724h0c-0.298-0.081-0.593-0.163-0.886-0.247h0   c-1.034-0.296-2.034-0.614-2.997-0.952c-0.502-0.176-0.994-0.358-1.475-0.545c-0.554-0.216-1.091-0.437-1.608-0.665h0c0,0,0,0,0,0   c0,0,0,0,0,0h0c-0.284-0.125-0.561-0.251-0.833-0.38c-2.23-1.051-4.056-2.21-5.357-3.406c-1.453-1.336-2.19-2.631-2.19-3.851   c0-1.22,0.737-2.515,2.19-3.851c1.301-1.197,3.127-2.355,5.357-3.407h0c-0.025-0.064-0.05-0.129-0.074-0.193   c-0.096-0.258-0.187-0.517-0.271-0.778c-0.042-0.131-0.083-0.261-0.122-0.393c-0.078-0.263-0.15-0.527-0.216-0.793   c-0.131-0.532-0.238-1.069-0.32-1.611c-0.031-0.203-0.058-0.407-0.081-0.612c-0.016-0.137-0.03-0.273-0.043-0.41   c-0.006-0.069-0.012-0.137-0.018-0.206c-0.038-0.481-0.058-0.965-0.058-1.452c0-0.025,0-0.05,0-0.075h0   c-3.544,1.5-6.405,3.24-8.519,5.184c-1.322,1.215-2.354,2.519-3.067,3.873c-0.8,1.521-1.206,3.11-1.206,4.723   c0,1.613,0.406,3.203,1.206,4.723c0.713,1.354,1.744,2.658,3.067,3.873c2.114,1.943,4.975,3.684,8.519,5.184   c0.301,0.128,0.608,0.254,0.919,0.378h0C19.501,64.209,19.629,64.26,19.759,64.31z"/><path d="M52.961,70.087c-0.073,0.189-0.148,0.377-0.228,0.564c-0.567,1.34-1.287,2.593-2.153,3.747   c0.361,0.443,0.746,0.869,1.155,1.277c1.47,1.47,3.171,2.642,5.058,3.486c0.225-0.51,0.444-1.04,0.658-1.588   c0.551-1.418,1.055-2.931,1.508-4.524c-1.43-0.729-2.672-1.778-3.631-3.051C54.543,70.036,53.754,70.066,52.961,70.087z"/><path d="M53.118,61.806c0.093-0.003,0.186-0.005,0.279-0.009c0.097-0.527,0.234-1.041,0.408-1.537   c1.051-3.013,3.442-5.403,6.454-6.454c-1.197-0.234-2.366-0.592-3.5-1.072c-1.34-0.567-2.593-1.287-3.747-2.153   c-0.443,0.361-0.869,0.746-1.277,1.155c-0.408,0.408-0.794,0.834-1.155,1.277c-0.201,0.246-0.395,0.496-0.58,0.752   c-0.755,1.038-1.388,2.158-1.892,3.351c-0.052,0.122-0.102,0.244-0.15,0.367c-0.015,0.038-0.03,0.076-0.045,0.113   c-0.006,0.016-0.013,0.033-0.019,0.049c-0.046,0.12-0.091,0.239-0.133,0.36c-0.011,0.031-0.022,0.062-0.033,0.093   c-0.011,0.031-0.022,0.062-0.033,0.093c-0.02,0.059-0.04,0.117-0.06,0.176c-0.014,0.041-0.027,0.083-0.041,0.124   c-0.001,0.002-0.001,0.003-0.002,0.005c-0.012,0.036-0.023,0.072-0.034,0.108c-0.005,0.015-0.01,0.031-0.015,0.046   c-0.016,0.052-0.033,0.104-0.048,0.157c-0.008,0.027-0.016,0.054-0.024,0.081c-0.018,0.059-0.035,0.118-0.052,0.178   c-0.014,0.049-0.028,0.098-0.041,0.147c-0.014,0.051-0.028,0.101-0.041,0.152v0.001c-0.014,0.051-0.027,0.102-0.04,0.152   c-0.007,0.029-0.014,0.057-0.022,0.086c-0.011,0.046-0.023,0.092-0.034,0.137c-0.01,0.04-0.019,0.081-0.029,0.121   c-0.029,0.124-0.056,0.248-0.082,0.373c-0.007,0.034-0.014,0.069-0.021,0.103c-0.007,0.034-0.014,0.069-0.021,0.103   c-0.007,0.034-0.013,0.069-0.02,0.103c-0.009,0.048-0.018,0.096-0.026,0.144c-0.001,0.005-0.002,0.011-0.003,0.017   c-0.008,0.046-0.016,0.093-0.024,0.139c-0.001,0.007-0.003,0.014-0.004,0.021c-0.008,0.049-0.016,0.098-0.024,0.147   c-0.008,0.052-0.016,0.104-0.024,0.156c-0.005,0.031-0.009,0.063-0.014,0.094c-0.002,0.013-0.004,0.025-0.005,0.038   c-0.004,0.025-0.007,0.052-0.011,0.077c-0.02,0.143-0.037,0.286-0.054,0.43c1.031,0.031,2.071,0.047,3.118,0.047   S52.087,61.837,53.118,61.806z"/></g></g>        </g></svg>